<svg width="16.5" height="16.5" viewBox="0 0 16 16" fill="none" xmlns="http://www.w3.org/2000/svg">
<path d="M9.61992 12.5466C9.49325 12.5466 9.36658 12.5 9.26658 12.4C9.07325 12.2066 9.07325 11.8866 9.26658 11.6933L12.9599 7.99996L9.26658 4.30662C9.07325 4.11329 9.07325 3.79329 9.26658 3.59996C9.45992 3.40662 9.77992 3.40662 9.97325 3.59996L14.0199 7.64662C14.2132 7.83996 14.2132 8.15996 14.0199 8.35329L9.97325 12.4C9.87325 12.5 9.74658 12.5466 9.61992 12.5466Z" />
<path d="M13.5535 8.5H2.3335C2.06016 8.5 1.8335 8.27333 1.8335 8C1.8335 7.72667 2.06016 7.5 2.3335 7.5H13.5535C13.8268 7.5 14.0535 7.72667 14.0535 8C14.0535 8.27333 13.8268 8.5 13.5535 8.5Z" />
</svg>
