<svg width="52" height="52" viewBox="0 0 52 52" fill="none" xmlns="http://www.w3.org/2000/svg">
<g filter="url(#filter0_d_6028_4630)">
<path d="M2.5 25C2.5 12.0213 13.0213 1.5 26 1.5C38.9787 1.5 49.5 12.0213 49.5 25C49.5 37.9787 38.9787 48.5 26 48.5C13.0213 48.5 2.5 37.9787 2.5 25Z" stroke="#EAECF0" shape-rendering="crispEdges"/>
<path d="M23.5 20H28.5M23.5 24H28.5M23.5 28H28.5M32 34V19.2C32 18.0799 32 17.5198 31.782 17.092C31.5903 16.7157 31.2843 16.4097 30.908 16.218C30.4802 16 29.9201 16 28.8 16H23.2C22.0799 16 21.5198 16 21.092 16.218C20.7157 16.4097 20.4097 16.7157 20.218 17.092C20 17.5198 20 18.0799 20 19.2V34M34 34H18" stroke="#344054" stroke-width="2" stroke-linecap="round" stroke-linejoin="round"/>
</g>
<defs>
<filter id="filter0_d_6028_4630" x="0" y="0" width="52" height="52" filterUnits="userSpaceOnUse" color-interpolation-filters="sRGB">
<feFlood flood-opacity="0" result="BackgroundImageFix"/>
<feColorMatrix in="SourceAlpha" type="matrix" values="0 0 0 0 0 0 0 0 0 0 0 0 0 0 0 0 0 0 127 0" result="hardAlpha"/>
<feOffset dy="1"/>
<feGaussianBlur stdDeviation="1"/>
<feComposite in2="hardAlpha" operator="out"/>
<feColorMatrix type="matrix" values="0 0 0 0 0.0627451 0 0 0 0 0.0941176 0 0 0 0 0.156863 0 0 0 0.05 0"/>
<feBlend mode="normal" in2="BackgroundImageFix" result="effect1_dropShadow_6028_4630"/>
<feBlend mode="normal" in="SourceGraphic" in2="effect1_dropShadow_6028_4630" result="shape"/>
</filter>
</defs>
</svg>
