<svg width="18" height="24" viewBox="0 0 18 24" fill="none" xmlns="http://www.w3.org/2000/svg">
<g clip-path="url(#clip0_3466_574294)">
<path d="M0 2.4C0 1.07452 1.07452 0 2.4 0H10.2L18 7.8V21.6C18 22.9255 16.9255 24 15.6 24H2.4C1.07452 24 0 22.9255 0 21.6V2.4Z" fill="#0DB664"/>
<path d="M12.0031 7.8H18.0031L10.2031 0V6C10.2031 6.99411 11.009 7.8 12.0031 7.8Z" fill="white" fill-opacity="0.5"/>
</g>
<path d="M7.08671 16.9639H6.15347C6.13642 16.8431 6.10162 16.7359 6.04907 16.6421C5.99651 16.547 5.92904 16.466 5.84665 16.3992C5.76426 16.3325 5.66909 16.2813 5.56114 16.2458C5.45461 16.2103 5.33884 16.1926 5.21384 16.1926C4.98799 16.1926 4.79125 16.2487 4.62364 16.3609C4.45603 16.4717 4.32605 16.6336 4.23373 16.8467C4.1414 17.0583 4.09523 17.3154 4.09523 17.618C4.09523 17.9291 4.1414 18.1904 4.23373 18.4021C4.32748 18.6137 4.45816 18.7735 4.62577 18.8815C4.79338 18.9894 4.98728 19.0434 5.20745 19.0434C5.33103 19.0434 5.44537 19.0271 5.55049 18.9944C5.65702 18.9617 5.75148 18.9142 5.83387 18.8517C5.91625 18.7877 5.98444 18.7103 6.03841 18.6194C6.09381 18.5285 6.13216 18.4248 6.15347 18.3083L7.08671 18.3126C7.06256 18.5129 7.00219 18.7061 6.9056 18.8921C6.81043 19.0768 6.68188 19.2423 6.51995 19.3886C6.35944 19.5335 6.16767 19.6485 5.94466 19.7338C5.72307 19.8176 5.47236 19.8595 5.19253 19.8595C4.80333 19.8595 4.45532 19.7714 4.1485 19.5953C3.8431 19.4191 3.60162 19.1642 3.42407 18.8303C3.24793 18.4965 3.15986 18.0924 3.15986 17.618C3.15986 17.1421 3.24935 16.7373 3.42833 16.4035C3.6073 16.0697 3.8502 15.8154 4.15702 15.6407C4.46384 15.4646 4.80901 15.3765 5.19253 15.3765C5.44537 15.3765 5.67975 15.412 5.89566 15.483C6.11299 15.5541 6.30546 15.6578 6.47307 15.7941C6.64069 15.9291 6.77705 16.0945 6.88216 16.2906C6.9887 16.4866 7.05688 16.711 7.08671 16.9639ZM9.99547 16.6911C9.97843 16.5193 9.90527 16.3857 9.77601 16.2906C9.64675 16.1954 9.47132 16.1478 9.24973 16.1478C9.09917 16.1478 8.97203 16.1691 8.86834 16.2117C8.76465 16.2529 8.6851 16.3105 8.62971 16.3843C8.57573 16.4582 8.54874 16.542 8.54874 16.6357C8.5459 16.7139 8.56223 16.782 8.59775 16.8403C8.63468 16.8985 8.6851 16.949 8.74902 16.9916C8.81294 17.0328 8.88681 17.069 8.97061 17.1002C9.05442 17.1301 9.14391 17.1556 9.23908 17.1769L9.63113 17.2707C9.82147 17.3133 9.99618 17.3701 10.1553 17.4411C10.3144 17.5122 10.4521 17.5995 10.5686 17.7032C10.6851 17.8069 10.7753 17.9291 10.8392 18.0697C10.9046 18.2103 10.9379 18.3715 10.9394 18.5534C10.9379 18.8204 10.8698 19.0519 10.7348 19.248C10.6013 19.4426 10.4081 19.5938 10.1553 19.7018C9.90385 19.8083 9.60059 19.8616 9.24547 19.8616C8.8932 19.8616 8.58638 19.8076 8.32502 19.6997C8.06507 19.5917 7.86195 19.4319 7.71564 19.2203C7.57076 19.0072 7.49476 18.7437 7.48766 18.4298H8.38042C8.39036 18.5761 8.43226 18.6982 8.50613 18.7963C8.58141 18.8928 8.68155 18.966 8.80655 19.0157C8.93297 19.064 9.07573 19.0882 9.23482 19.0882C9.39107 19.0882 9.52672 19.0654 9.64178 19.02C9.75826 18.9745 9.84846 18.9113 9.91238 18.8303C9.9763 18.7494 10.0083 18.6563 10.0083 18.5512C10.0083 18.4532 9.97914 18.3708 9.9209 18.3041C9.86408 18.2373 9.78027 18.1805 9.66948 18.1336C9.5601 18.0867 9.42587 18.0441 9.26678 18.0058L8.79164 17.8865C8.42374 17.797 8.13326 17.657 7.92019 17.4667C7.70712 17.2764 7.6013 17.02 7.60272 16.6975C7.6013 16.4333 7.67161 16.2025 7.81365 16.0051C7.95712 15.8076 8.15385 15.6535 8.40385 15.5427C8.65385 15.4319 8.93794 15.3765 9.25613 15.3765C9.57999 15.3765 9.86266 15.4319 10.1041 15.5427C10.347 15.6535 10.536 15.8076 10.6709 16.0051C10.8058 16.2025 10.8754 16.4312 10.8797 16.6911H9.99547ZM12.2283 15.4362L13.283 18.7515H13.3234L14.3803 15.4362H15.403L13.8987 19.7998H12.7098L11.2034 15.4362H12.2283Z" fill="white"/>
<defs>
<clipPath id="clip0_3466_574294">
<rect width="18" height="24" fill="white"/>
</clipPath>
</defs>
</svg>
