<svg width="18" height="24" viewBox="0 0 18 24" fill="none" xmlns="http://www.w3.org/2000/svg">
<g clip-path="url(#clip0_2804_330643)">
<path d="M0 2.4C0 1.07452 1.07452 0 2.4 0H10.2L18 7.8V21.6C18 22.9255 16.9255 24 15.6 24H2.4C1.07452 24 0 22.9255 0 21.6V2.4Z" fill="#07B762"/>
<path d="M12.0031 7.8H18.0031L10.2031 0V6C10.2031 6.99411 11.009 7.8 12.0031 7.8Z" fill="white" fill-opacity="0.5"/>
</g>
<path d="M4.65942 19.7998H3.11254V15.4362H4.6722C5.11112 15.4362 5.48896 15.5235 5.80572 15.6982C6.12249 15.8715 6.36609 16.1208 6.53655 16.4461C6.70842 16.7714 6.79436 17.1606 6.79436 17.6137C6.79436 18.0683 6.70842 18.4589 6.53655 18.7856C6.36609 19.1123 6.12107 19.363 5.80146 19.5377C5.48328 19.7124 5.1026 19.7998 4.65942 19.7998ZM4.03513 19.0093H4.62107C4.89379 19.0093 5.1232 18.961 5.30928 18.8644C5.49678 18.7664 5.6374 18.6151 5.73115 18.4106C5.82632 18.2046 5.87391 17.939 5.87391 17.6137C5.87391 17.2913 5.82632 17.0278 5.73115 16.8232C5.6374 16.6187 5.49749 16.4681 5.31141 16.3715C5.12533 16.2749 4.89592 16.2267 4.6232 16.2267H4.03513V19.0093ZM11.3677 17.618C11.3677 18.0938 11.2775 18.4987 11.0971 18.8325C10.9181 19.1663 10.6738 19.4213 10.3642 19.5974C10.0559 19.7721 9.70934 19.8595 9.3244 19.8595C8.93661 19.8595 8.5886 19.7714 8.28036 19.5953C7.97212 19.4191 7.72852 19.1642 7.54954 18.8303C7.37056 18.4965 7.28107 18.0924 7.28107 17.618C7.28107 17.1421 7.37056 16.7373 7.54954 16.4035C7.72852 16.0697 7.97212 15.8154 8.28036 15.6407C8.5886 15.4646 8.93661 15.3765 9.3244 15.3765C9.70934 15.3765 10.0559 15.4646 10.3642 15.6407C10.6738 15.8154 10.9181 16.0697 11.0971 16.4035C11.2775 16.7373 11.3677 17.1421 11.3677 17.618ZM10.4324 17.618C10.4324 17.3097 10.3862 17.0498 10.2939 16.8382C10.2029 16.6265 10.0744 16.466 9.9082 16.3566C9.74201 16.2472 9.54741 16.1926 9.3244 16.1926C9.10138 16.1926 8.90678 16.2472 8.74059 16.3566C8.5744 16.466 8.44513 16.6265 8.35281 16.8382C8.2619 17.0498 8.21644 17.3097 8.21644 17.618C8.21644 17.9262 8.2619 18.1862 8.35281 18.3978C8.44513 18.6095 8.5744 18.77 8.74059 18.8794C8.90678 18.9887 9.10138 19.0434 9.3244 19.0434C9.54741 19.0434 9.74201 18.9887 9.9082 18.8794C10.0744 18.77 10.2029 18.6095 10.2939 18.3978C10.3862 18.1862 10.4324 17.9262 10.4324 17.618ZM15.7813 16.9639H14.848C14.831 16.8431 14.7962 16.7359 14.7436 16.6421C14.6911 16.547 14.6236 16.466 14.5412 16.3992C14.4588 16.3325 14.3637 16.2813 14.2557 16.2458C14.1492 16.2103 14.0334 16.1926 13.9084 16.1926C13.6826 16.1926 13.4858 16.2487 13.3182 16.3609C13.1506 16.4717 13.0206 16.6336 12.9283 16.8467C12.836 17.0583 12.7898 17.3154 12.7898 17.618C12.7898 17.9291 12.836 18.1904 12.9283 18.4021C13.022 18.6137 13.1527 18.7735 13.3203 18.8815C13.488 18.9894 13.6818 19.0434 13.902 19.0434C14.0256 19.0434 14.1399 19.0271 14.2451 18.9944C14.3516 18.9617 14.4461 18.9142 14.5284 18.8517C14.6108 18.7877 14.679 18.7103 14.733 18.6194C14.7884 18.5285 14.8267 18.4248 14.848 18.3083L15.7813 18.3126C15.7571 18.5129 15.6968 18.7061 15.6002 18.8921C15.505 19.0768 15.3764 19.2423 15.2145 19.3886C15.054 19.5335 14.8622 19.6485 14.6392 19.7338C14.4176 19.8176 14.1669 19.8595 13.8871 19.8595C13.4979 19.8595 13.1499 19.7714 12.8431 19.5953C12.5377 19.4191 12.2962 19.1642 12.1186 18.8303C11.9425 18.4965 11.8544 18.0924 11.8544 17.618C11.8544 17.1421 11.9439 16.7373 12.1229 16.4035C12.3019 16.0697 12.5448 15.8154 12.8516 15.6407C13.1584 15.4646 13.5036 15.3765 13.8871 15.3765C14.1399 15.3765 14.3743 15.412 14.5902 15.483C14.8076 15.5541 15 15.6578 15.1676 15.7941C15.3353 15.9291 15.4716 16.0945 15.5767 16.2906C15.6833 16.4866 15.7514 16.711 15.7813 16.9639Z" fill="white"/>
<defs>
<clipPath id="clip0_2804_330643">
<rect width="18" height="24" fill="white"/>
</clipPath>
</defs>
</svg>
