<svg width="28" height="32" viewBox="0 0 28 32" fill="none" xmlns="http://www.w3.org/2000/svg">
<path d="M17.9987 1V7.66667C17.9987 8.10869 18.1743 8.53262 18.4869 8.84518C18.7994 9.15774 19.2233 9.33333 19.6654 9.33333H26.332M17.9987 1L11.332 1C10.448 1 9.60013 1.35119 8.97501 1.97631C8.34989 2.60143 7.9987 3.44928 7.9987 4.33333L7.9987 21C7.9987 21.8841 8.34989 22.7319 8.97501 23.357C9.60013 23.9821 10.448 24.3333 11.332 24.3333H22.9987C23.8828 24.3333 24.7306 23.9821 25.3557 23.357C25.9808 22.7319 26.332 21.8841 26.332 21V9.33333M17.9987 1L26.332 9.33333M19.6654 24.3333V27.6667C19.6654 28.5507 19.3142 29.3986 18.6891 30.0237C18.0639 30.6488 17.2161 31 16.332 31H4.66536C3.78131 31 2.93346 30.6488 2.30834 30.0237C1.68322 29.3986 1.33203 28.5507 1.33203 27.6667L1.33203 11C1.33203 10.1159 1.68322 9.2681 2.30834 8.64298C2.93346 8.01786 3.78131 7.66667 4.66536 7.66667H7.9987" stroke="black" stroke-width="1.66667" stroke-linecap="round" stroke-linejoin="round"/>
</svg>
