<svg width="18" height="24" viewBox="0 0 18 24" fill="none" xmlns="http://www.w3.org/2000/svg">
<g clip-path="url(#clip0_2804_330675)">
<path d="M0 2.4C0 1.07452 1.07452 0 2.4 0H10.2L18 7.8V21.6C18 22.9255 16.9255 24 15.6 24H2.4C1.07452 24 0 22.9255 0 21.6V2.4Z" fill="#4A22EB"/>
<path d="M12.0031 7.8H18.0031L10.2031 0V6C10.2031 6.99411 11.009 7.8 12.0031 7.8Z" fill="white" fill-opacity="0.5"/>
</g>
<path d="M4.03396 15.4367H4.94589V18.4793C4.94589 18.7605 4.88268 19.0048 4.75626 19.2122C4.63126 19.4196 4.45725 19.5794 4.23424 19.6916C4.01123 19.8038 3.752 19.86 3.45654 19.86C3.19376 19.86 2.95512 19.8138 2.74064 19.7215C2.52757 19.6277 2.35853 19.4857 2.23353 19.2953C2.10853 19.1036 2.04674 18.8628 2.04816 18.573H2.96649C2.96933 18.6881 2.99277 18.7868 3.0368 18.8692C3.08225 18.9502 3.14404 19.0127 3.22217 19.0567C3.30172 19.0993 3.39547 19.1206 3.50342 19.1206C3.61706 19.1206 3.71294 19.0965 3.79106 19.0482C3.87061 18.9984 3.93098 18.926 3.97217 18.8308C4.01336 18.7357 4.03396 18.6185 4.03396 18.4793V15.4367ZM5.58868 19.8003V15.4367H7.31027C7.64123 15.4367 7.92319 15.4999 8.15615 15.6263C8.3891 15.7513 8.56666 15.9253 8.68882 16.1483C8.8124 16.3699 8.87419 16.6256 8.87419 16.9153C8.87419 17.2051 8.81169 17.4608 8.68669 17.6824C8.56169 17.904 8.38058 18.0766 8.14336 18.2002C7.90757 18.3237 7.62206 18.3855 7.28683 18.3855H6.18953V17.6462H7.13768C7.31524 17.6462 7.46154 17.6156 7.5766 17.5546C7.69308 17.4921 7.77973 17.4061 7.83654 17.2967C7.89478 17.1859 7.9239 17.0588 7.9239 16.9153C7.9239 16.7705 7.89478 16.644 7.83654 16.5361C7.77973 16.4267 7.69308 16.3422 7.5766 16.2825C7.46012 16.2215 7.3124 16.1909 7.13342 16.1909H6.51126V19.8003H5.58868ZM9.35344 19.8003V15.4367H12.2938V16.1973H10.276V17.2371H12.1425V17.9977H10.276V19.0396H12.3023V19.8003H9.35344ZM15.8007 16.8472C15.7709 16.7435 15.729 16.6519 15.675 16.5723C15.621 16.4913 15.555 16.4232 15.4769 16.3678C15.4002 16.3109 15.3121 16.2676 15.2127 16.2378C15.1147 16.208 15.006 16.193 14.8867 16.193C14.6637 16.193 14.4676 16.2484 14.2986 16.3592C14.131 16.47 14.0003 16.6313 13.9066 16.8429C13.8128 17.0531 13.7659 17.3102 13.7659 17.6142C13.7659 17.9182 13.8121 18.1767 13.9044 18.3898C13.9968 18.6028 14.1274 18.7655 14.2965 18.8777C14.4655 18.9885 14.6651 19.0439 14.8952 19.0439C15.104 19.0439 15.2823 19.007 15.43 18.9331C15.5791 18.8578 15.6928 18.752 15.7709 18.6156C15.8505 18.4793 15.8902 18.318 15.8902 18.132L16.0777 18.1597H14.9527V17.4651H16.7787V18.0148C16.7787 18.3983 16.6978 18.7278 16.5358 19.0034C16.3739 19.2776 16.1509 19.4892 15.8668 19.6384C15.5827 19.7861 15.2574 19.86 14.8909 19.86C14.4818 19.86 14.1225 19.7698 13.8128 19.5894C13.5031 19.4075 13.2617 19.1497 13.0884 18.8159C12.9165 18.4807 12.8306 18.083 12.8306 17.6227C12.8306 17.269 12.8817 16.9537 12.984 16.6767C13.0877 16.3983 13.2326 16.1625 13.4186 15.9693C13.6047 15.7761 13.8213 15.6291 14.0685 15.5283C14.3156 15.4274 14.5834 15.377 14.8718 15.377C15.1189 15.377 15.349 15.4132 15.5621 15.4857C15.7752 15.5567 15.9641 15.6575 16.1289 15.7882C16.2951 15.9189 16.4307 16.0744 16.5358 16.2548C16.6409 16.4338 16.7084 16.6313 16.7382 16.8472H15.8007Z" fill="white"/>
<defs>
<clipPath id="clip0_2804_330675">
<rect width="18" height="24" fill="white"/>
</clipPath>
</defs>
</svg>
