<svg width="18" height="24" viewBox="0 0 18 24" fill="none" xmlns="http://www.w3.org/2000/svg">
<g clip-path="url(#clip0_3802_268258)">
<path d="M0 2.4C0 1.07452 1.07452 0 2.4 0H10.2L18 7.8V21.6C18 22.9255 16.9255 24 15.6 24H2.4C1.07452 24 0 22.9255 0 21.6V2.4Z" fill="#3873FF"/>
<path d="M12.0031 7.8H18.0031L10.2031 0V6C10.2031 6.99411 11.009 7.8 12.0031 7.8Z" fill="white" fill-opacity="0.5"/>
</g>
<path d="M5.60775 15.4362H6.51968V18.4788C6.51968 18.76 6.45647 19.0044 6.33005 19.2117C6.20505 19.4191 6.03104 19.5789 5.80803 19.6911C5.58502 19.8034 5.32579 19.8595 5.03033 19.8595C4.76755 19.8595 4.52891 19.8133 4.31442 19.721C4.10136 19.6272 3.93232 19.4852 3.80732 19.2948C3.68232 19.1031 3.62053 18.8623 3.62195 18.5725H4.54028C4.54312 18.6876 4.56656 18.7863 4.61059 18.8687C4.65604 18.9497 4.71783 19.0122 4.79596 19.0562C4.8755 19.0988 4.96925 19.1201 5.07721 19.1201C5.19085 19.1201 5.28673 19.096 5.36485 19.0477C5.4444 18.998 5.50477 18.9255 5.54596 18.8303C5.58715 18.7352 5.60775 18.618 5.60775 18.4788V15.4362ZM7.16246 19.7998V15.4362H8.88406C9.21502 15.4362 9.49698 15.4994 9.72994 15.6258C9.96289 15.7508 10.1404 15.9248 10.2626 16.1478C10.3862 16.3694 10.448 16.6251 10.448 16.9149C10.448 17.2046 10.3855 17.4603 10.2605 17.6819C10.1355 17.9035 9.95437 18.0761 9.71715 18.1997C9.48136 18.3232 9.19585 18.385 8.86062 18.385H7.76332V17.6457H8.71147C8.88903 17.6457 9.03533 17.6151 9.15039 17.5541C9.26687 17.4916 9.35352 17.4056 9.41033 17.2963C9.46857 17.1855 9.49769 17.0583 9.49769 16.9149C9.49769 16.77 9.46857 16.6436 9.41033 16.5356C9.35352 16.4262 9.26687 16.3417 9.15039 16.282C9.03391 16.221 8.88619 16.1904 8.70721 16.1904H8.08505V19.7998H7.16246ZM13.8207 16.8467C13.7909 16.743 13.749 16.6514 13.695 16.5718C13.641 16.4909 13.575 16.4227 13.4968 16.3673C13.4201 16.3105 13.3321 16.2671 13.2326 16.2373C13.1346 16.2075 13.026 16.1926 12.9066 16.1926C12.6836 16.1926 12.4876 16.248 12.3186 16.3588C12.151 16.4695 12.0203 16.6308 11.9265 16.8424C11.8328 17.0526 11.7859 17.3097 11.7859 17.6137C11.7859 17.9177 11.8321 18.1762 11.9244 18.3893C12.0167 18.6024 12.1474 18.765 12.3164 18.8772C12.4855 18.988 12.685 19.0434 12.9152 19.0434C13.124 19.0434 13.3022 19.0065 13.45 18.9326C13.5991 18.8573 13.7127 18.7515 13.7909 18.6151C13.8704 18.4788 13.9102 18.3176 13.9102 18.1315L14.0977 18.1592H12.9727V17.4646H14.7987V18.0143C14.7987 18.3978 14.7177 18.7274 14.5558 19.0029C14.3938 19.2771 14.1708 19.4887 13.8867 19.6379C13.6027 19.7856 13.2774 19.8595 12.9109 19.8595C12.5018 19.8595 12.1424 19.7693 11.8328 19.5889C11.5231 19.407 11.2816 19.1492 11.1083 18.8154C10.9365 18.4802 10.8505 18.0825 10.8505 17.6222C10.8505 17.2686 10.9017 16.9532 11.0039 16.6762C11.1076 16.3978 11.2525 16.162 11.4386 15.9688C11.6247 15.7757 11.8413 15.6286 12.0885 15.5278C12.3356 15.4269 12.6034 15.3765 12.8917 15.3765C13.1389 15.3765 13.369 15.4127 13.5821 15.4852C13.7951 15.5562 13.984 15.657 14.1488 15.7877C14.315 15.9184 14.4507 16.074 14.5558 16.2543C14.6609 16.4333 14.7284 16.6308 14.7582 16.8467H13.8207Z" fill="white"/>
<defs>
<clipPath id="clip0_3802_268258">
<rect width="18" height="24" fill="white"/>
</clipPath>
</defs>
</svg>
