<svg width="21" height="17" viewBox="0 0 21 17" fill="none" xmlns="http://www.w3.org/2000/svg">
<path d="M3 16L5.757 8.649C5.82844 8.45843 5.95632 8.29419 6.12357 8.17822C6.29082 8.06225 6.48948 8.00008 6.693 8H19M3 16H17.026C17.4913 15.9999 17.942 15.8375 18.3004 15.5409C18.6589 15.2443 18.9028 14.832 18.99 14.375L19.986 9.164C20.0098 9.02081 20.0022 8.87415 19.9636 8.73421C19.925 8.59427 19.8564 8.46441 19.7626 8.35365C19.6688 8.24288 19.5519 8.15388 19.4203 8.09281C19.2886 8.03174 19.1452 8.00007 19 8M3 16C2.46957 16 1.96086 15.7893 1.58579 15.4142C1.21071 15.0391 1 14.5304 1 14V3C1 2.46957 1.21071 1.96086 1.58579 1.58579C1.96086 1.21071 2.46957 1 3 1H7L10 4H17C17.5304 4 18.0391 4.21071 18.4142 4.58579C18.7893 4.96086 19 5.46957 19 6V8" stroke="#069952" stroke-width="1.5" stroke-linecap="round" stroke-linejoin="round"/>
</svg>
