<svg width="18" height="24" viewBox="0 0 18 24" fill="none" xmlns="http://www.w3.org/2000/svg">
<g clip-path="url(#clip0_3466_574270)">
<path d="M0 2.4C0 1.07452 1.07452 0 2.4 0H10.2L18 7.8V21.6C18 22.9255 16.9255 24 15.6 24H2.4C1.07452 24 0 22.9255 0 21.6V2.4Z" fill="#EDA12F"/>
<path d="M12.0031 7.8H18.0031L10.2031 0V6C10.2031 6.99411 11.009 7.8 12.0031 7.8Z" fill="white" fill-opacity="0.5"/>
</g>
<path d="M3.91625 19.7998V15.4362H5.63784C5.96881 15.4362 6.25077 15.4994 6.48373 15.6258C6.71668 15.7508 6.89424 15.9248 7.0164 16.1478C7.13998 16.3694 7.20177 16.6251 7.20177 16.9149C7.20177 17.2046 7.13927 17.4603 7.01427 17.6819C6.88927 17.9035 6.70816 18.0761 6.47094 18.1997C6.23515 18.3232 5.94963 18.385 5.61441 18.385H4.51711V17.6457H5.46526C5.64282 17.6457 5.78912 17.6151 5.90418 17.5541C6.02066 17.4916 6.1073 17.4056 6.16412 17.2963C6.22236 17.1855 6.25148 17.0583 6.25148 16.9149C6.25148 16.77 6.22236 16.6436 6.16412 16.5356C6.1073 16.4262 6.02066 16.3417 5.90418 16.282C5.7877 16.221 5.63998 16.1904 5.461 16.1904H4.83884V19.7998H3.91625ZM9.22789 19.7998H7.68102V15.4362H9.24068C9.6796 15.4362 10.0574 15.5235 10.3742 15.6982C10.691 15.8715 10.9346 16.1208 11.105 16.4461C11.2769 16.7714 11.3628 17.1606 11.3628 17.6137C11.3628 18.0683 11.2769 18.4589 11.105 18.7856C10.9346 19.1123 10.6895 19.363 10.3699 19.5377C10.0518 19.7124 9.67108 19.7998 9.22789 19.7998ZM8.6036 19.0093H9.18954C9.46227 19.0093 9.69167 18.961 9.87775 18.8644C10.0653 18.7664 10.2059 18.6151 10.2996 18.4106C10.3948 18.2046 10.4424 17.939 10.4424 17.6137C10.4424 17.2913 10.3948 17.0278 10.2996 16.8232C10.2059 16.6187 10.066 16.4681 9.87988 16.3715C9.6938 16.2749 9.4644 16.2267 9.19167 16.2267H8.6036V19.0093ZM11.9263 19.7998V15.4362H14.8155V16.1968H12.8488V17.2366H14.6237V17.9972H12.8488V19.7998H11.9263Z" fill="white"/>
<defs>
<clipPath id="clip0_3466_574270">
<rect width="18" height="24" fill="white"/>
</clipPath>
</defs>
</svg>
