<svg width="18" height="24" viewBox="0 0 18 24" fill="none" xmlns="http://www.w3.org/2000/svg">
<g clip-path="url(#clip0_3802_268270)">
<path d="M0 2.4C0 1.07452 1.07452 0 2.4 0H10.2L18 7.8V21.6C18 22.9255 16.9255 24 15.6 24H2.4C1.07452 24 0 22.9255 0 21.6V2.4Z" fill="#069952"/>
<path d="M12.0031 7.8H18.0031L10.2031 0V6C10.2031 6.99411 11.009 7.8 12.0031 7.8Z" fill="white" fill-opacity="0.5"/>
</g>
<path d="M3.27172 19.7998V15.4362H4.99331C5.32428 15.4362 5.60624 15.4994 5.83919 15.6258C6.07215 15.7508 6.24971 15.9248 6.37186 16.1478C6.49544 16.3694 6.55723 16.6251 6.55723 16.9149C6.55723 17.2046 6.49473 17.4603 6.36973 17.6819C6.24473 17.9035 6.06363 18.0761 5.82641 18.1997C5.59061 18.3232 5.3051 18.385 4.96988 18.385H3.87257V17.6457H4.82073C4.99828 17.6457 5.14459 17.6151 5.25965 17.5541C5.37613 17.4916 5.46277 17.4056 5.51959 17.2963C5.57783 17.1855 5.60695 17.0583 5.60695 16.9149C5.60695 16.77 5.57783 16.6436 5.51959 16.5356C5.46277 16.4262 5.37613 16.3417 5.25965 16.282C5.14317 16.221 4.99544 16.1904 4.81647 16.1904H4.19431V19.7998H3.27172ZM10.6863 15.4362V19.7998H9.88947L7.99103 17.0534H7.95907V19.7998H7.03649V15.4362H7.84615L9.72967 18.1805H9.76802V15.4362H10.6863ZM14.2221 16.8467C14.1922 16.743 14.1503 16.6514 14.0964 16.5718C14.0424 16.4909 13.9763 16.4227 13.8982 16.3673C13.8215 16.3105 13.7334 16.2671 13.634 16.2373C13.536 16.2075 13.4273 16.1926 13.308 16.1926C13.085 16.1926 12.889 16.248 12.7199 16.3588C12.5523 16.4695 12.4216 16.6308 12.3279 16.8424C12.2341 17.0526 12.1873 17.3097 12.1873 17.6137C12.1873 17.9177 12.2334 18.1762 12.3258 18.3893C12.4181 18.6024 12.5488 18.765 12.7178 18.8772C12.8868 18.988 13.0864 19.0434 13.3165 19.0434C13.5253 19.0434 13.7036 19.0065 13.8513 18.9326C14.0005 18.8573 14.1141 18.7515 14.1922 18.6151C14.2718 18.4788 14.3116 18.3176 14.3116 18.1315L14.4991 18.1592H13.3741V17.4646H15.2V18.0143C15.2 18.3978 15.1191 18.7274 14.9571 19.0029C14.7952 19.2771 14.5722 19.4887 14.2881 19.6379C14.004 19.7856 13.6787 19.8595 13.3123 19.8595C12.9032 19.8595 12.5438 19.7693 12.2341 19.5889C11.9245 19.407 11.683 19.1492 11.5097 18.8154C11.3378 18.4802 11.2519 18.0825 11.2519 17.6222C11.2519 17.2686 11.303 16.9532 11.4053 16.6762C11.509 16.3978 11.6539 16.162 11.84 15.9688C12.026 15.7757 12.2427 15.6286 12.4898 15.5278C12.737 15.4269 13.0047 15.3765 13.2931 15.3765C13.5402 15.3765 13.7704 15.4127 13.9834 15.4852C14.1965 15.5562 14.3854 15.657 14.5502 15.7877C14.7164 15.9184 14.852 16.074 14.9571 16.2543C15.0623 16.4333 15.1297 16.6308 15.1596 16.8467H14.2221Z" fill="white"/>
<defs>
<clipPath id="clip0_3802_268270">
<rect width="18" height="24" fill="white"/>
</clipPath>
</defs>
</svg>
