<svg width="18" height="24" viewBox="0 0 18 24" fill="none" xmlns="http://www.w3.org/2000/svg">
<g clip-path="url(#clip0_3466_574288)">
<path d="M0 2.4C0 1.07452 1.07452 0 2.4 0H10.2L18 7.8V21.6C18 22.9255 16.9255 24 15.6 24H2.4C1.07452 24 0 22.9255 0 21.6V2.4Z" fill="#FF1607"/>
<path d="M12.0031 7.8H18.0031L10.2031 0V6C10.2031 6.99411 11.009 7.8 12.0031 7.8Z" fill="white" fill-opacity="0.5"/>
</g>
<path d="M3.90746 19.7998V15.4362H5.62906C5.96002 15.4362 6.24198 15.4994 6.47494 15.6258C6.70789 15.7508 6.88545 15.9248 7.00761 16.1478C7.13119 16.3694 7.19298 16.6251 7.19298 16.9149C7.19298 17.2046 7.13048 17.4603 7.00548 17.6819C6.88048 17.9035 6.69937 18.0761 6.46215 18.1997C6.22636 18.3232 5.94085 18.385 5.60562 18.385H4.50832V17.6457H5.45647C5.63403 17.6457 5.78033 17.6151 5.89539 17.5541C6.01187 17.4916 6.09852 17.4056 6.15533 17.2963C6.21357 17.1855 6.24269 17.0583 6.24269 16.9149C6.24269 16.77 6.21357 16.6436 6.15533 16.5356C6.09852 16.4262 6.01187 16.3417 5.89539 16.282C5.77891 16.221 5.63119 16.1904 5.45221 16.1904H4.83005V19.7998H3.90746ZM7.67223 19.7998V15.4362H9.39382C9.72479 15.4362 10.0067 15.4994 10.2397 15.6258C10.4727 15.7508 10.6502 15.9248 10.7724 16.1478C10.896 16.3694 10.9577 16.6251 10.9577 16.9149C10.9577 17.2046 10.8952 17.4603 10.7702 17.6819C10.6452 17.9035 10.4641 18.0761 10.2269 18.1997C9.99112 18.3232 9.70561 18.385 9.37038 18.385H8.27308V17.6457H9.22124C9.39879 17.6457 9.5451 17.6151 9.66016 17.5541C9.77663 17.4916 9.86328 17.4056 9.9201 17.2963C9.97834 17.1855 10.0075 17.0583 10.0075 16.9149C10.0075 16.77 9.97834 16.6436 9.9201 16.5356C9.86328 16.4262 9.77663 16.3417 9.66016 16.282C9.54368 16.221 9.39595 16.1904 9.21697 16.1904H8.59482V19.7998H7.67223ZM11.2708 16.1968V15.4362H14.8546V16.1968H13.5187V19.7998H12.6067V16.1968H11.2708Z" fill="white"/>
<defs>
<clipPath id="clip0_3466_574288">
<rect width="18" height="24" fill="white"/>
</clipPath>
</defs>
</svg>
