<svg width="18" height="24" viewBox="0 0 18 24" fill="none" xmlns="http://www.w3.org/2000/svg">
<g clip-path="url(#clip0_3466_574282)">
<path d="M0 2.4C0 1.07452 1.07452 0 2.4 0H10.2L18 7.8V21.6C18 22.9255 16.9255 24 15.6 24H2.4C1.07452 24 0 22.9255 0 21.6V2.4Z" fill="#344054"/>
<path d="M12.0031 7.8H18.0031L10.2031 0V6C10.2031 6.99411 11.009 7.8 12.0031 7.8Z" fill="white" fill-opacity="0.5"/>
</g>
<path d="M3.68072 16.1968V15.4362H7.26453V16.1968H5.92859V19.7998H5.01666V16.1968H3.68072ZM8.59979 15.4362L9.47976 16.9234H9.51385L10.3981 15.4362H11.44L10.1083 17.618L11.4698 19.7998H10.4087L9.51385 18.3105H9.47976L8.58487 19.7998H7.52805L8.89382 17.618L7.55362 15.4362H8.59979ZM11.7376 16.1968V15.4362H15.3214V16.1968H13.9855V19.7998H13.0735V16.1968H11.7376Z" fill="white"/>
<defs>
<clipPath id="clip0_3466_574282">
<rect width="18" height="24" fill="white"/>
</clipPath>
</defs>
</svg>
