<svg width="18" height="24" viewBox="0 0 18 24" fill="none" xmlns="http://www.w3.org/2000/svg">
<g clip-path="url(#clip0_3802_268276)">
<path d="M0 2.4C0 1.07452 1.07452 0 2.4 0H10.2L18 7.8V21.6C18 22.9255 16.9255 24 15.6 24H2.4C1.07452 24 0 22.9255 0 21.6V2.4Z" fill="#D68813"/>
<path d="M12.0031 7.8H18.0031L10.2031 0V6C10.2031 6.99411 11.009 7.8 12.0031 7.8Z" fill="white" fill-opacity="0.5"/>
</g>
<path d="M2.76985 19.3999L1.70856 15.6908H2.5652L3.17915 18.268H3.20994L3.88729 15.6908H4.62077L5.29631 18.2734H5.32891L5.94286 15.6908H6.7995L5.73821 19.3999H4.97393L4.26761 16.9749H4.23864L3.53413 19.3999H2.76985ZM7.11722 19.3999V15.6908H9.61651V16.3374H7.90142V17.2212H9.48792V17.8677H7.90142V18.7533H9.62375V19.3999H7.11722ZM10.138 19.3999V15.6908H11.6231C11.8959 15.6908 12.1235 15.7313 12.3058 15.8122C12.4882 15.893 12.6252 16.0053 12.717 16.149C12.8087 16.2915 12.8546 16.4557 12.8546 16.6416C12.8546 16.7865 12.8256 16.9139 12.7677 17.0238C12.7097 17.1324 12.63 17.2218 12.5286 17.2918C12.4284 17.3606 12.3137 17.4095 12.1845 17.4385V17.4747C12.3258 17.4808 12.458 17.5206 12.5811 17.5943C12.7055 17.6679 12.8063 17.7711 12.8836 17.904C12.9608 18.0356 12.9995 18.1925 12.9995 18.3748C12.9995 18.5716 12.9506 18.7473 12.8528 18.9019C12.7562 19.0552 12.6131 19.1765 12.4236 19.2659C12.234 19.3552 12.0004 19.3999 11.7227 19.3999H10.138ZM10.9222 18.7588H11.5615C11.78 18.7588 11.9394 18.7171 12.0396 18.6338C12.1398 18.5493 12.1899 18.437 12.1899 18.297C12.1899 18.1943 12.1652 18.1038 12.1157 18.0253C12.0662 17.9468 11.9955 17.8852 11.9038 17.8406C11.8132 17.7959 11.7052 17.7736 11.5796 17.7736H10.9222V18.7588ZM10.9222 17.2429H11.5035C11.611 17.2429 11.7064 17.2242 11.7897 17.1868C11.8742 17.1481 11.9406 17.0938 11.9889 17.0238C12.0384 16.9537 12.0632 16.8698 12.0632 16.772C12.0632 16.638 12.0155 16.5299 11.9201 16.4478C11.8259 16.3657 11.6919 16.3247 11.518 16.3247H10.9222V17.2429ZM13.4078 19.3999V15.6908H14.8711C15.1524 15.6908 15.3921 15.7445 15.5901 15.852C15.7881 15.9582 15.939 16.1062 16.0429 16.2957C16.1479 16.4841 16.2004 16.7014 16.2004 16.9477C16.2004 17.194 16.1473 17.4113 16.0411 17.5997C15.9348 17.788 15.7809 17.9347 15.5792 18.0398C15.3788 18.1448 15.1361 18.1973 14.8512 18.1973H13.9185V17.5689H14.7244C14.8753 17.5689 14.9997 17.5429 15.0975 17.491C15.1965 17.4379 15.2701 17.3649 15.3184 17.2719C15.3679 17.1777 15.3927 17.0696 15.3927 16.9477C15.3927 16.8245 15.3679 16.7171 15.3184 16.6253C15.2701 16.5324 15.1965 16.4605 15.0975 16.4098C14.9985 16.3579 14.8729 16.3319 14.7208 16.3319H14.1919V19.3999H13.4078Z" fill="white"/>
<defs>
<clipPath id="clip0_3802_268276">
<rect width="18" height="24" fill="white"/>
</clipPath>
</defs>
</svg>
