<svg width="18" height="24" viewBox="0 0 18 24" fill="none" xmlns="http://www.w3.org/2000/svg">
<g clip-path="url(#clip0_3466_574300)">
<path d="M0 2.4C0 1.07452 1.07452 0 2.4 0H10.2L18 7.8V21.6C18 22.9255 16.9255 24 15.6 24H2.4C1.07452 24 0 22.9255 0 21.6V2.4Z" fill="#0DB664"/>
<path d="M12.0031 7.8H18.0031L10.2031 0V6C10.2031 6.99411 11.009 7.8 12.0031 7.8Z" fill="white" fill-opacity="0.5"/>
</g>
<path d="M4.84869 15.4362L5.72866 16.9234H5.76276L6.64699 15.4362H7.68889L6.35722 17.618L7.71872 19.7998H6.65764L5.76276 18.3105H5.72866L4.83378 19.7998H3.77696L5.14273 17.618L3.80253 15.4362H4.84869ZM8.1527 19.7998V15.4362H9.07528V19.0392H10.946V19.7998H8.1527ZM13.8042 16.6911C13.7871 16.5193 13.714 16.3857 13.5847 16.2906C13.4555 16.1954 13.28 16.1478 13.0584 16.1478C12.9079 16.1478 12.7807 16.1691 12.6771 16.2117C12.5734 16.2529 12.4938 16.3105 12.4384 16.3843C12.3844 16.4582 12.3575 16.542 12.3575 16.6357C12.3546 16.7139 12.3709 16.782 12.4065 16.8403C12.4434 16.8985 12.4938 16.949 12.5577 16.9916C12.6217 17.0328 12.6955 17.069 12.7793 17.1002C12.8631 17.1301 12.9526 17.1556 13.0478 17.1769L13.4398 17.2707C13.6302 17.3133 13.8049 17.3701 13.964 17.4411C14.1231 17.5122 14.2609 17.5995 14.3773 17.7032C14.4938 17.8069 14.584 17.9291 14.6479 18.0697C14.7133 18.2103 14.7467 18.3715 14.7481 18.5534C14.7467 18.8204 14.6785 19.0519 14.5435 19.248C14.41 19.4426 14.2168 19.5938 13.964 19.7018C13.7126 19.8083 13.4093 19.8616 13.0542 19.8616C12.7019 19.8616 12.3951 19.8076 12.1337 19.6997C11.8738 19.5917 11.6707 19.4319 11.5244 19.2203C11.3795 19.0072 11.3035 18.7437 11.2964 18.4298H12.1891C12.1991 18.5761 12.241 18.6982 12.3148 18.7963C12.3901 18.8928 12.4903 18.966 12.6153 19.0157C12.7417 19.064 12.8844 19.0882 13.0435 19.0882C13.1998 19.0882 13.3354 19.0654 13.4505 19.02C13.567 18.9745 13.6572 18.9113 13.7211 18.8303C13.785 18.7494 13.817 18.6563 13.817 18.5512C13.817 18.4532 13.7878 18.3708 13.7296 18.3041C13.6728 18.2373 13.589 18.1805 13.4782 18.1336C13.3688 18.0867 13.2346 18.0441 13.0755 18.0058L12.6003 17.8865C12.2325 17.797 11.942 17.657 11.7289 17.4667C11.5158 17.2764 11.41 17.02 11.4114 16.6975C11.41 16.4333 11.4803 16.2025 11.6224 16.0051C11.7658 15.8076 11.9626 15.6535 12.2126 15.5427C12.4626 15.4319 12.7467 15.3765 13.0648 15.3765C13.3887 15.3765 13.6714 15.4319 13.9128 15.5427C14.1557 15.6535 14.3447 15.8076 14.4796 16.0051C14.6146 16.2025 14.6842 16.4312 14.6884 16.6911H13.8042Z" fill="white"/>
<defs>
<clipPath id="clip0_3466_574300">
<rect width="18" height="24" fill="white"/>
</clipPath>
</defs>
</svg>
