<svg width="101" height="32" viewBox="0 0 101 32" fill="none" xmlns="http://www.w3.org/2000/svg">
<path d="M16.0002 0C7.16376 0 0 7.16367 0 16C0 24.8363 7.16376 32 16.0002 32C24.8366 32 32.0004 24.8363 32.0004 16C32.0004 7.16367 24.8366 0 16.0002 0ZM16.0002 29.4137C8.59206 29.4137 2.58632 23.408 2.58632 16C2.58632 8.59196 8.59114 2.58536 16.0002 2.58536C23.4093 2.58536 29.4141 8.59103 29.4141 15.9991C29.4141 23.4071 23.4083 29.4128 16.0002 29.4128V29.4137Z" fill="#250C89"/>
<path d="M16 3.87842C9.30549 3.87842 3.87915 9.30469 3.87915 15.9991C3.87915 22.6936 9.30642 28.1199 16 28.1199C22.6936 28.1199 28.1209 22.6927 28.1209 15.9991C28.1209 9.30562 22.6936 3.87842 16 3.87842ZM16 25.5345C10.7338 25.5345 6.46458 21.2653 6.46458 15.9991C6.46458 10.733 10.7338 6.46381 16 6.46381C21.2662 6.46381 25.5355 10.733 25.5355 15.9991C25.5355 21.2653 21.2662 25.5345 16 25.5345Z" fill="#3913D2"/>
<path d="M16.0006 7.75684C11.4481 7.75684 7.7583 11.4466 7.7583 15.999C7.7583 20.5514 11.4481 24.2412 16.0006 24.2412C20.5531 24.2412 24.2428 20.5505 24.2428 15.999C24.2428 11.4475 20.5531 7.75684 16.0006 7.75684ZM16.0006 21.6558C12.8764 21.6558 10.3437 19.1231 10.3437 15.999C10.3437 12.8749 12.8764 10.3422 16.0006 10.3422C19.1247 10.3422 21.6574 12.8749 21.6574 15.999C21.6574 19.1231 19.1247 21.6558 16.0006 21.6558Z" fill="#6847EE"/>
<path d="M20.365 15.9998C20.365 18.4094 18.4109 20.3634 16.0014 20.3634C13.5918 20.3634 11.6377 18.4103 11.6377 15.9998C11.6377 13.5894 13.5918 11.6362 16.0014 11.6362C18.4109 11.6362 20.365 13.5903 20.365 15.9998Z" fill="#A491F5"/>
<path d="M47.2726 21.8719L50.7828 11.3213H54.519L49.3788 25.0752H45.1158L40.0005 11.3213H43.7616L47.2718 21.8719H47.2726Z" fill="#101323"/>
<path d="M57.8035 24.4162C56.7337 23.8288 55.8938 22.9975 55.2831 21.9215C54.6725 20.8462 54.3679 19.6047 54.3679 18.1977C54.3679 16.7907 54.681 15.5499 55.308 14.4739C55.935 13.3978 56.7912 12.5665 57.8781 11.9792C58.9643 11.3918 60.1763 11.0981 61.5142 11.0981C62.852 11.0981 64.0633 11.3918 65.1502 11.9792C66.2364 12.5665 67.0933 13.3986 67.7203 14.4739C68.3473 15.5499 68.6604 16.7914 68.6604 18.1977C68.6604 19.6039 68.338 20.8462 67.6954 21.9215C67.0514 22.9975 66.182 23.8288 65.0873 24.4162C63.9926 25.0035 62.7681 25.2972 61.4139 25.2972C60.0597 25.2972 58.8726 25.0035 57.8035 24.4162ZM63.2071 21.8096C63.7673 21.5035 64.214 21.0443 64.5489 20.4321C64.8829 19.8199 65.0508 19.0748 65.0508 18.1977C65.0508 16.8901 64.7035 15.8848 64.0104 15.1817C63.3166 14.4785 62.4682 14.1266 61.4652 14.1266C60.4622 14.1266 59.6223 14.4785 58.9448 15.1817C58.2681 15.8855 57.9294 16.8909 57.9294 18.1977C57.9294 19.5045 58.2596 20.5106 58.92 21.2137C59.5804 21.9176 60.4117 22.2688 61.4147 22.2688C62.0495 22.2688 62.6469 22.1157 63.2079 21.8096H63.2071Z" fill="#101323"/>
<path d="M75.3669 11.7182C76.161 11.3048 77.0677 11.0974 78.0878 11.0974C79.2741 11.0974 80.3486 11.3872 81.3097 11.966C82.2708 12.5456 83.0314 13.3684 83.5916 14.4358C84.1517 15.5033 84.4314 16.741 84.4314 18.1472C84.4314 19.5534 84.151 20.7996 83.5916 21.8834C83.0314 22.9672 82.2708 23.8071 81.3097 24.403C80.3479 24.9989 79.2741 25.2965 78.0878 25.2965C77.0513 25.2965 76.1447 25.0937 75.3669 24.6881C74.59 24.2826 73.9669 23.7574 73.4992 23.1118V25.0727H69.989V6.70312H73.4992V13.3318C73.9506 12.6699 74.5729 12.1323 75.3669 11.7182ZM80.3315 16.0006C79.9889 15.3969 79.5375 14.937 78.9774 14.6231C78.4172 14.3092 77.8112 14.1515 77.1593 14.1515C76.5075 14.1515 75.9263 14.3131 75.3662 14.6355C74.806 14.9579 74.3546 15.4264 74.012 16.0379C73.6693 16.6501 73.4976 17.3703 73.4976 18.1977C73.4976 19.0251 73.6686 19.7453 74.012 20.3576C74.3546 20.9698 74.806 21.4375 75.3662 21.7599C75.9263 22.0823 76.5238 22.2439 77.1593 22.2439C77.7949 22.2439 78.4172 22.0784 78.9774 21.7475C79.5375 21.4165 79.9889 20.9449 80.3315 20.3327C80.6742 19.7205 80.8459 18.9917 80.8459 18.148C80.8459 17.3042 80.6742 16.605 80.3315 16.0006Z" fill="#101323"/>
<path d="M91.1135 11.7182C91.9076 11.3048 92.8142 11.0974 93.8343 11.0974C95.0207 11.0974 96.0952 11.3872 97.0563 11.966C98.0174 12.5456 98.778 13.3684 99.3381 14.4358C99.8983 15.5033 100.178 16.741 100.178 18.1472C100.178 19.5534 99.8975 20.7996 99.3381 21.8834C98.778 22.9672 98.0174 23.8071 97.0563 24.403C96.0944 24.9989 95.0207 25.2965 93.8343 25.2965C92.7979 25.2965 91.8912 25.0937 91.1135 24.6881C90.3366 24.2826 89.7135 23.7574 89.2458 23.1118V25.0727H85.7356V6.70312H89.2458V13.3318C89.6972 12.6699 90.3195 12.1323 91.1135 11.7182ZM96.0781 16.0006C95.7355 15.3969 95.2841 14.937 94.7239 14.6231C94.1638 14.3092 93.5578 14.1515 92.9059 14.1515C92.2541 14.1515 91.6729 14.3131 91.1127 14.6355C90.5526 14.9579 90.1012 15.4264 89.7586 16.0379C89.4159 16.6501 89.2442 17.3703 89.2442 18.1977C89.2442 19.0251 89.4152 19.7453 89.7586 20.3576C90.1012 20.9698 90.5526 21.4375 91.1127 21.7599C91.6729 22.0823 92.2704 22.2439 92.9059 22.2439C93.5414 22.2439 94.1638 22.0784 94.7239 21.7475C95.2841 21.4165 95.7355 20.9449 96.0781 20.3327C96.4208 19.7205 96.5925 18.9917 96.5925 18.148C96.5925 17.3042 96.4208 16.605 96.0781 16.0006Z" fill="#101323"/>
</svg>
