<svg width="49" height="48" viewBox="0 0 49 48" fill="none" xmlns="http://www.w3.org/2000/svg">
<path d="M24.0122 0.000244141C10.7577 0.000244141 0.012207 10.7456 0.012207 23.9999C0.012207 37.2543 10.7577 47.9997 24.0122 47.9997C37.2667 47.9997 48.0122 37.2543 48.0122 23.9999C48.0122 10.7456 37.2667 0.000244141 24.0122 0.000244141ZM24.0122 44.1203C12.9001 44.1203 3.89164 35.1119 3.89164 23.9999C3.89164 12.888 12.8988 3.87824 24.0122 3.87824C35.1257 3.87824 44.1328 12.8866 44.1328 23.9986C44.1328 35.1105 35.1243 44.1189 24.0122 44.1189V44.1203Z" fill="#250C89"/>
<path d="M24.0121 5.81787C13.9705 5.81787 5.83105 13.9572 5.83105 23.9987C5.83105 34.0403 13.9719 42.1796 24.0121 42.1796C34.0524 42.1796 42.1932 34.0389 42.1932 23.9987C42.1932 13.9586 34.0524 5.81787 24.0121 5.81787ZM24.0121 38.3015C16.1129 38.3015 9.70915 31.8978 9.70915 23.9987C9.70915 16.0996 16.1129 9.69592 24.0121 9.69592C31.9113 9.69592 38.3151 16.0996 38.3151 23.9987C38.3151 31.8978 31.9113 38.3015 24.0121 38.3015V38.3015Z" fill="#3913D2"/>
<path d="M24.0129 11.6355C17.1842 11.6355 11.6497 17.17 11.6497 23.9986C11.6497 30.8272 17.1842 36.3617 24.0129 36.3617C30.8416 36.3617 36.3761 30.8258 36.3761 23.9986C36.3761 17.1714 30.8416 11.6355 24.0129 11.6355V11.6355ZM24.0129 32.4836C19.3267 32.4836 15.5278 28.6847 15.5278 23.9986C15.5278 19.3124 19.3267 15.5135 24.0129 15.5135C28.6991 15.5135 32.4981 19.3124 32.4981 23.9986C32.4981 28.6847 28.6991 32.4836 24.0129 32.4836V32.4836Z" fill="#6847EE"/>
<path d="M30.5593 24.0002C30.5593 27.6144 27.6282 30.5455 24.0139 30.5455C20.3996 30.5455 17.4685 27.6158 17.4685 24.0002C17.4685 20.3845 20.3996 17.4548 24.0139 17.4548C27.6282 17.4548 30.5593 20.3859 30.5593 24.0002V24.0002Z" fill="#A491F5"/>
</svg>
